<svg height='100px' width='100px'  fill="#000000" xmlns="http://www.w3.org/2000/svg" viewBox="0 0 64 64" x="0px" y="0px"><title>Artboard 30</title><g data-name="Layer 31"><path d="M62,1H2A1,1,0,0,0,1,2V24a6,6,0,0,0,3,5.188V62a1,1,0,0,0,1,1H59a1,1,0,0,0,1-1V29.188A6,6,0,0,0,63,24V2A1,1,0,0,0,62,1ZM61,3V7H3V3ZM13,9h8V24a4,4,0,0,1-8,0ZM23,9h8V24a4,4,0,0,1-8,0ZM33,9h8V24a4,4,0,0,1-8,0ZM43,9h8V24a4,4,0,0,1-8,0ZM3,9h8V24a4,4,0,0,1-8,0Zm7,52V59H27a1,1,0,0,0,1-1V34h2V61Zm0-4V34H26V57Zm48,4H32V33a1,1,0,0,0-1-1H9a1,1,0,0,0-1,1V61H6V29.91a5.936,5.936,0,0,0,6-2.6,5.992,5.992,0,0,0,10,0,5.992,5.992,0,0,0,10,0,5.992,5.992,0,0,0,10,0,5.992,5.992,0,0,0,10,0,5.936,5.936,0,0,0,6,2.6ZM57,28a4,4,0,0,1-4-4V9h8V24A4,4,0,0,1,57,28Z"></path><path d="M50.385,46.151a4.182,4.182,0,0,0,.044-.6,4.431,4.431,0,1,0-8.858,0,4.182,4.182,0,0,0,.044.6A7.291,7.291,0,0,0,39,51.777a7,7,0,1,0,14,0A7.291,7.291,0,0,0,50.385,46.151ZM46,57a5.121,5.121,0,0,1-5-5.223,5.265,5.265,0,0,1,2.289-4.383,1,1,0,0,0,.4-1.1,2.67,2.67,0,0,1-.119-.735,2.432,2.432,0,1,1,4.858,0,2.67,2.67,0,0,1-.119.735,1,1,0,0,0,.4,1.1A5.265,5.265,0,0,1,51,51.777,5.121,5.121,0,0,1,46,57Z"></path><path d="M42,40c0-2.243-1.317-4-3-4s-3,1.757-3,4,1.317,4,3,4S42,42.243,42,40Zm-4,0c0-1.221.592-2,1-2s1,.779,1,2-.592,2-1,2S38,41.221,38,40Z"></path><path d="M46,40c1.683,0,3-1.757,3-4s-1.317-4-3-4-3,1.757-3,4S44.317,40,46,40Zm0-6c.408,0,1,.779,1,2s-.592,2-1,2-1-.779-1-2S45.592,34,46,34Z"></path><path d="M53,36c-1.683,0-3,1.757-3,4s1.317,4,3,4,3-1.757,3-4S54.683,36,53,36Zm0,6c-.408,0-1-.779-1-2s.592-2,1-2,1,.779,1,2S53.408,42,53,42Z"></path><polygon points="20 36 18 36 18 38 16 38 16 40 18 40 18 42 20 42 20 40 22 40 22 38 20 38 20 36"></polygon></g></svg>